<?xml version="1.0" encoding="utf-8"?>
<!-- Generator: Adobe Illustrator 26.0.3, SVG Export Plug-In . SVG Version: 6.00 Build 0)  -->
<svg version="1.1" id="Layer_1" xmlns="http://www.w3.org/2000/svg" xmlns:xlink="http://www.w3.org/1999/xlink" x="0px" y="0px"
	 viewBox="0 0 640 512" style="enable-background:new 0 0 640 512;" xml:space="preserve">
<style type="text/css">
	.st0{fill:#4B549E;}
</style>
<path class="st0" d="M288,48c0-26.5,21.5-48,48-48h96c26.5,0,48,21.5,48,48v144h40v-72c0-13.3,10.7-24,24-24s24,10.7,24,24v72h24
	c26.5,0,48,21.5,48,48v224c0,26.5-21.5,48-48,48H432h-96c-26.5,0-48-21.5-48-48V48z M352,80v32c0,8.8,7.2,16,16,16h32
	c8.8,0,16-7.2,16-16V80c0-8.8-7.2-16-16-16h-32C359.2,64,352,71.2,352,80z M368,160c-8.8,0-16,7.2-16,16v32c0,8.8,7.2,16,16,16h32
	c8.8,0,16-7.2,16-16v-32c0-8.8-7.2-16-16-16H368z M352,272v32c0,8.8,7.2,16,16,16h32c8.8,0,16-7.2,16-16v-32c0-8.8-7.2-16-16-16h-32
	C359.2,256,352,263.2,352,272z M528,256c-8.8,0-16,7.2-16,16v32c0,8.8,7.2,16,16,16h32c8.8,0,16-7.2,16-16v-32c0-8.8-7.2-16-16-16
	H528z M512,368v32c0,8.8,7.2,16,16,16h32c8.8,0,16-7.2,16-16v-32c0-8.8-7.2-16-16-16h-32C519.2,352,512,359.2,512,368z M224,160
	c0,6-1,11-2,16c20,14,34,38,34,64c0,45-36,80-80,80h-16v160c0,18-15,32-32,32c-18,0-32-14-32-32V320H80c-45,0-80-35-80-80
	c0-26,13-50,33-64c-1-5-1-10-1-16c0-53,42-96,96-96C181,64,224,107,224,160z"/>
</svg>
